<svg width="18" height="18" viewBox="0 0 18 18" fill="none" xmlns="http://www.w3.org/2000/svg">
<path fill-rule="evenodd" clip-rule="evenodd" d="M3.94003 1.12469C3.49284 1.12469 3.06394 1.30273 2.74753 1.61913C2.43141 1.93526 2.25309 2.36641 2.25309 2.81388V15.1875C2.25309 15.6349 2.43141 16.0661 2.74753 16.3822C3.06394 16.6986 3.49284 16.8767 3.94003 16.8767H14.0662C14.5136 16.8767 14.9448 16.6986 15.2609 16.3822C15.5773 16.0661 15.7531 15.6349 15.7531 15.1875V2.81388C15.7531 2.36641 15.5773 1.93526 15.2609 1.61913C14.9448 1.30273 14.5136 1.12469 14.0662 1.12469H3.94003ZM3.94003 2.25082H14.0662C14.2163 2.25082 14.3587 2.30988 14.4644 2.41563C14.5699 2.5211 14.6292 2.66341 14.6292 2.81388V15.1875C14.6292 15.3379 14.5699 15.4803 14.4644 15.5857C14.3589 15.6915 14.2163 15.7505 14.0662 15.7505H3.94003C3.78984 15.7505 3.64978 15.6915 3.54403 15.5857C3.43856 15.4803 3.37922 15.3379 3.37922 15.1875V2.81388C3.37922 2.66341 3.43856 2.5211 3.54403 2.41563C3.64978 2.30988 3.78984 2.25082 3.94003 2.25082Z" fill="#36393E"/>
<path fill-rule="evenodd" clip-rule="evenodd" d="M7.03463 5.0639C6.72666 5.06362 6.47269 5.31647 6.47157 5.62472V5.625C6.47157 5.93381 6.72553 6.18778 7.03407 6.18778H10.9721C11.2807 6.18778 11.5346 5.93381 11.5346 5.625V5.62472C11.5338 5.31647 11.2798 5.06362 10.9716 5.0639H7.03463Z" fill="#36393E"/>
<path fill-rule="evenodd" clip-rule="evenodd" d="M7.03463 8.4375C7.03463 8.4375 7.03435 8.4375 7.03407 8.4375C6.72553 8.4375 6.47157 8.69147 6.47157 9V9.00113C6.47157 9.30994 6.72553 9.56363 7.03407 9.56363H10.9721C11.2807 9.56363 11.5346 9.30994 11.5346 9.00113V9C11.5346 8.69147 11.2807 8.4375 10.9721 8.4375C10.9718 8.4375 10.9718 8.4375 10.9716 8.4375H7.03463Z" fill="#36393E"/>
<path fill-rule="evenodd" clip-rule="evenodd" d="M7.03463 11.8136C7.03463 11.8136 7.03435 11.8136 7.03407 11.8136C6.72553 11.8136 6.47157 12.0676 6.47157 12.3761V12.3767C6.47269 12.6849 6.72666 12.9378 7.03463 12.9375H10.9716C11.2798 12.9378 11.5338 12.6849 11.5346 12.3767C11.5346 12.3767 11.5346 12.3764 11.5346 12.3761C11.5346 12.0676 11.2807 11.8136 10.9721 11.8136C10.9718 11.8136 10.9718 11.8136 10.9716 11.8136H7.03463Z" fill="#36393E"/>
</svg>
